<svg xmlns="http://www.w3.org/2000/svg" xmlns:xlink="http://www.w3.org/1999/xlink" xmlns:lucid="lucid" width="1321" height="401.1"><g transform="translate(-1259.5 340.5)" lucid:page-tab-id="0_0"><path d="M1280-315a5 5 0 0 1 5-5h310a5 5 0 0 1 5 5V3a5 5 0 0 1-5 5h-310a5 5 0 0 1-5-5z" fill="#fff"/><path d="M1280-280v-35a5 5 0 0 1 5-5h310a5 5 0 0 1 5 5v35" fill="#dedeff"/><path d="M1280-315a5 5 0 0 1 5-5h310a5 5 0 0 1 5 5V3a5 5 0 0 1-5 5h-310a5 5 0 0 1-5-5zM1280-280h320M1419.97-280V8" stroke="#282c33" fill="none"/><use xlink:href="#a" transform="matrix(1,0,0,1,1290,-320) translate(0 23.6)"/><use xlink:href="#b" transform="matrix(1,0,0,1,1285,-277.5) translate(0 17.1)"/><use xlink:href="#c" transform="matrix(1,0,0,1,1424.975472940262,-277.5) translate(0 17.1)"/><use xlink:href="#d" transform="matrix(1,0,0,1,1424.975472940262,-277.5) translate(33.550000000000004 17.1)"/><use xlink:href="#e" transform="matrix(1,0,0,1,1424.975472940262,-277.5) translate(44.5 17.1)"/><use xlink:href="#f" transform="matrix(1,0,0,1,1285,-245.5) translate(0 17.1)"/><use xlink:href="#g" transform="matrix(1,0,0,1,1424.975472940262,-245.5) translate(0 17.1)"/><use xlink:href="#h" transform="matrix(1,0,0,1,1424.975472940262,-245.5) translate(91.45 17.1)"/><use xlink:href="#i" transform="matrix(1,0,0,1,1285,-213.5) translate(0 17.1)"/><use xlink:href="#g" transform="matrix(1,0,0,1,1424.975472940262,-213.5) translate(0 17.1)"/><use xlink:href="#j" transform="matrix(1,0,0,1,1424.975472940262,-213.5) translate(91.45 17.1)"/><use xlink:href="#k" transform="matrix(1,0,0,1,1285,-181.5) translate(0 17.1)"/><use xlink:href="#g" transform="matrix(1,0,0,1,1424.975472940262,-181.5) translate(0 17.1)"/><use xlink:href="#l" transform="matrix(1,0,0,1,1424.975472940262,-181.5) translate(91.45 17.1)"/><use xlink:href="#m" transform="matrix(1,0,0,1,1285,-149.5) translate(0 17.1)"/><use xlink:href="#n" transform="matrix(1,0,0,1,1424.975472940262,-149.5) translate(0 17.1)"/><use xlink:href="#o" transform="matrix(1,0,0,1,1285,-117.5) translate(0 17.1)"/><use xlink:href="#p" transform="matrix(1,0,0,1,1424.975472940262,-117.5) translate(0 17.1)"/><use xlink:href="#q" transform="matrix(1,0,0,1,1285,-85.5) translate(0 17.1)"/><use xlink:href="#g" transform="matrix(1,0,0,1,1424.975472940262,-85.5) translate(0 17.1)"/><use xlink:href="#l" transform="matrix(1,0,0,1,1424.975472940262,-85.5) translate(91.45 17.1)"/><use xlink:href="#r" transform="matrix(1,0,0,1,1285,-53.5) translate(0 17.1)"/><use xlink:href="#g" transform="matrix(1,0,0,1,1424.975472940262,-53.5) translate(0 17.1)"/><use xlink:href="#s" transform="matrix(1,0,0,1,1424.975472940262,-53.5) translate(91.45 17.1)"/><use xlink:href="#t" transform="matrix(1,0,0,1,1285,-21.5) translate(0 17.1)"/><use xlink:href="#u" transform="matrix(1,0,0,1,1424.975472940262,-21.5) translate(0 17.1)"/><path d="M2240-282.9a5 5 0 0 1 5-5h310a5 5 0 0 1 5 5v126a5 5 0 0 1-5 5h-310a5 5 0 0 1-5-5z" fill="#fff"/><path d="M2240-247.9v-35a5 5 0 0 1 5-5h310a5 5 0 0 1 5 5v35" fill="#dedeff"/><path d="M2240-282.9a5 5 0 0 1 5-5h310a5 5 0 0 1 5 5v126a5 5 0 0 1-5 5h-310a5 5 0 0 1-5-5zM2240-247.9h320M2379.97-247.9v96" stroke="#282c33" fill="none"/><use xlink:href="#v" transform="matrix(1,0,0,1,2250,-287.9000012493356) translate(0 23.6)"/><use xlink:href="#b" transform="matrix(1,0,0,1,2245,-245.40000124933562) translate(0 17.1)"/><use xlink:href="#c" transform="matrix(1,0,0,1,2384.975472940262,-245.40000124933562) translate(0 17.1)"/><use xlink:href="#d" transform="matrix(1,0,0,1,2384.975472940262,-245.40000124933562) translate(33.550000000000004 17.1)"/><use xlink:href="#e" transform="matrix(1,0,0,1,2384.975472940262,-245.40000124933562) translate(44.5 17.1)"/><use xlink:href="#w" transform="matrix(1,0,0,1,2245,-213.40000124933562) translate(0 17.1)"/><use xlink:href="#g" transform="matrix(1,0,0,1,2384.975472940262,-213.40000124933562) translate(0 17.1)"/><use xlink:href="#x" transform="matrix(1,0,0,1,2384.975472940262,-213.40000124933562) translate(91.45 17.1)"/><use xlink:href="#y" transform="matrix(1,0,0,1,2245,-181.40000124933562) translate(0 17.1)"/><use xlink:href="#u" transform="matrix(1,0,0,1,2384.975472940262,-181.40000124933562) translate(0 17.1)"/><path d="M1760-315a5 5 0 0 1 5-5h310a5 5 0 0 1 5 5v94a5 5 0 0 1-5 5h-310a5 5 0 0 1-5-5z" fill="#fff"/><path d="M1760-280v-35a5 5 0 0 1 5-5h310a5 5 0 0 1 5 5v35" fill="#dedeff"/><path d="M1760-315a5 5 0 0 1 5-5h310a5 5 0 0 1 5 5v94a5 5 0 0 1-5 5h-310a5 5 0 0 1-5-5zM1760-280h320M1899.97-280v64" stroke="#282c33" fill="none"/><use xlink:href="#z" transform="matrix(1,0,0,1,1770,-320) translate(0 23.6)"/><use xlink:href="#A" transform="matrix(1,0,0,1,1765,-277.5) translate(0 17.1)"/><use xlink:href="#c" transform="matrix(1,0,0,1,1904.975472940262,-277.5) translate(0 17.1)"/><use xlink:href="#d" transform="matrix(1,0,0,1,1904.975472940262,-277.5) translate(33.550000000000004 17.1)"/><use xlink:href="#B" transform="matrix(1,0,0,1,1904.975472940262,-277.5) translate(44.5 17.1)"/><use xlink:href="#C" transform="matrix(1,0,0,1,1904.975472940262,-277.5) translate(73.5 17.1)"/><use xlink:href="#D" transform="matrix(1,0,0,1,1904.975472940262,-277.5) translate(83.5 17.1)"/><use xlink:href="#E" transform="matrix(1,0,0,1,1765,-245.5) translate(0 17.1)"/><use xlink:href="#c" transform="matrix(1,0,0,1,1904.975472940262,-245.5) translate(0 17.1)"/><use xlink:href="#d" transform="matrix(1,0,0,1,1904.975472940262,-245.5) translate(33.550000000000004 17.1)"/><use xlink:href="#B" transform="matrix(1,0,0,1,1904.975472940262,-245.5) translate(44.5 17.1)"/><use xlink:href="#C" transform="matrix(1,0,0,1,1904.975472940262,-245.5) translate(73.5 17.1)"/><use xlink:href="#D" transform="matrix(1,0,0,1,1904.975472940262,-245.5) translate(83.5 17.1)"/><path d="M1760-155a5 5 0 0 1 5-5h310a5 5 0 0 1 5 5v94a5 5 0 0 1-5 5h-310a5 5 0 0 1-5-5z" fill="#fff"/><path d="M1760-120v-35a5 5 0 0 1 5-5h310a5 5 0 0 1 5 5v35" fill="#dedeff"/><path d="M1760-155a5 5 0 0 1 5-5h310a5 5 0 0 1 5 5v94a5 5 0 0 1-5 5h-310a5 5 0 0 1-5-5zM1760-120h320M1899.97-120v64" stroke="#282c33" fill="none"/><use xlink:href="#F" transform="matrix(1,0,0,1,1770,-160) translate(0 23.6)"/><use xlink:href="#A" transform="matrix(1,0,0,1,1765,-117.5) translate(0 17.1)"/><use xlink:href="#c" transform="matrix(1,0,0,1,1904.975472940262,-117.5) translate(0 17.1)"/><use xlink:href="#d" transform="matrix(1,0,0,1,1904.975472940262,-117.5) translate(33.550000000000004 17.1)"/><use xlink:href="#B" transform="matrix(1,0,0,1,1904.975472940262,-117.5) translate(44.5 17.1)"/><use xlink:href="#C" transform="matrix(1,0,0,1,1904.975472940262,-117.5) translate(73.5 17.1)"/><use xlink:href="#D" transform="matrix(1,0,0,1,1904.975472940262,-117.5) translate(83.5 17.1)"/><use xlink:href="#G" transform="matrix(1,0,0,1,1765,-85.5) translate(0 17.1)"/><use xlink:href="#c" transform="matrix(1,0,0,1,1904.975472940262,-85.5) translate(0 17.1)"/><use xlink:href="#d" transform="matrix(1,0,0,1,1904.975472940262,-85.5) translate(33.550000000000004 17.1)"/><use xlink:href="#B" transform="matrix(1,0,0,1,1904.975472940262,-85.5) translate(44.5 17.1)"/><use xlink:href="#C" transform="matrix(1,0,0,1,1904.975472940262,-85.5) translate(73.5 17.1)"/><use xlink:href="#D" transform="matrix(1,0,0,1,1904.975472940262,-85.5) translate(83.5 17.1)"/><path d="M2240-122.9a5 5 0 0 1 5-5h310a5 5 0 0 1 5 5v158a5 5 0 0 1-5 5h-310a5 5 0 0 1-5-5z" fill="#fff"/><path d="M2240-87.9v-35a5 5 0 0 1 5-5h310a5 5 0 0 1 5 5v35" fill="#dedeff"/><path d="M2240-122.9a5 5 0 0 1 5-5h310a5 5 0 0 1 5 5v158a5 5 0 0 1-5 5h-310a5 5 0 0 1-5-5zM2240-87.9h320M2379.97-87.9v128" stroke="#282c33" fill="none"/><use xlink:href="#H" transform="matrix(1,0,0,1,2250,-127.9000012493356) translate(0 23.6)"/><use xlink:href="#b" transform="matrix(1,0,0,1,2245,-85.4000012493356) translate(0 17.1)"/><use xlink:href="#c" transform="matrix(1,0,0,1,2384.975472940262,-85.4000012493356) translate(0 17.1)"/><use xlink:href="#d" transform="matrix(1,0,0,1,2384.975472940262,-85.4000012493356) translate(33.550000000000004 17.1)"/><use xlink:href="#e" transform="matrix(1,0,0,1,2384.975472940262,-85.4000012493356) translate(44.5 17.1)"/><use xlink:href="#I" transform="matrix(1,0,0,1,2245,-53.4000012493356) translate(0 17.1)"/><use xlink:href="#g" transform="matrix(1,0,0,1,2384.975472940262,-53.4000012493356) translate(0 17.1)"/><use xlink:href="#h" transform="matrix(1,0,0,1,2384.975472940262,-53.4000012493356) translate(91.45 17.1)"/><use xlink:href="#q" transform="matrix(1,0,0,1,2245,-21.400001249335602) translate(0 17.1)"/><use xlink:href="#g" transform="matrix(1,0,0,1,2384.975472940262,-21.400001249335602) translate(0 17.1)"/><use xlink:href="#l" transform="matrix(1,0,0,1,2384.975472940262,-21.400001249335602) translate(91.45 17.1)"/><use xlink:href="#y" transform="matrix(1,0,0,1,2245,10.599998750664398) translate(0 17.1)"/><g><use xlink:href="#u" transform="matrix(1,0,0,1,2384.975472940262,10.599998750664398) translate(0 17.1)"/></g><path d="M2100.5-71.9h119" stroke="#3a414a" fill="none"/><path d="M2090.5-61.9v-20M2080.5-71.9h20M2100.5-61.9v-20M2229.5-81.9v20M2239.5-71.9h-20M2219.5-81.9v20" stroke="#3a414a" fill="#fff"/><path d="M2100.5-231.9h119" stroke="#3a414a" fill="none"/><path d="M2090.5-221.9v-20M2080.5-231.9h20M2100.5-221.9v-20M2229.5-241.9v20M2239.5-231.9h-20M2219.5-241.9v20" stroke="#3a414a" fill="#fff"/><path d="M1620.5-264h59.33a.17.17 0 0 0 .17-.17.17.17 0 0 1 .17-.17h59.33" stroke="#3a414a" fill="none"/><path d="M1610.5-254v-20M1600.5-264h20M1620.5-254v-20M1749.5-274.34v20M1759.5-264.34h-20M1739.5-274.34v20" stroke="#3a414a" fill="#fff"/><path d="M1620.5-264h47.5a12 12 0 0 1 12 12v134.66a12 12 0 0 0 12 12h47.5" stroke="#3a414a" fill="none"/><path d="M1610.5-254v-20M1600.5-264h20M1620.5-254v-20M1749.5-115.34v20M1759.5-105.34h-20M1739.5-115.34v20" stroke="#3a414a" fill="#fff"/><defs><path fill="#333" d="M220-157c-53 9-28 100-34 157h-49v-107c1-27-5-49-29-50C55-147 81-57 75 0H25l-1-190h47c2 12-1 28 3 38 10-53 101-56 108 0 13-22 24-43 59-42 82 1 51 116 57 194h-49v-107c-1-25-5-48-29-50" id="J"/><path fill="#333" d="M110-194c64 0 96 36 96 99 0 64-35 99-97 99-61 0-95-36-95-99 0-62 34-99 96-99zm-1 164c35 0 45-28 45-65 0-40-10-65-43-65-34 0-45 26-45 65 0 36 10 65 43 65" id="K"/><path fill="#333" d="M128 0H69L1-190h53L99-40l48-150h52" id="L"/><path fill="#333" d="M25-224v-37h50v37H25zM25 0v-190h50V0H25" id="M"/><path fill="#333" d="M185-48c-13 30-37 53-82 52C43 2 14-33 14-96s30-98 90-98c62 0 83 45 84 108H66c0 31 8 55 39 56 18 0 30-7 34-22zm-45-69c5-46-57-63-70-21-2 6-4 13-4 21h74" id="N"/><path fill="#333" d="M137-138c1-29-70-34-71-4 15 46 118 7 119 86 1 83-164 76-172 9l43-7c4 19 20 25 44 25 33 8 57-30 24-41C81-84 22-81 20-136c-2-80 154-74 161-7" id="O"/><g id="a"><use transform="matrix(0.05,0,0,0.05,0,0)" xlink:href="#J"/><use transform="matrix(0.05,0,0,0.05,16,0)" xlink:href="#K"/><use transform="matrix(0.05,0,0,0.05,26.950000000000003,0)" xlink:href="#L"/><use transform="matrix(0.05,0,0,0.05,36.95,0)" xlink:href="#M"/><use transform="matrix(0.05,0,0,0.05,41.95,0)" xlink:href="#N"/><use transform="matrix(0.05,0,0,0.05,51.95,0)" xlink:href="#O"/></g><path fill="#333" d="M24-231v-30h32v30H24zM24 0v-190h32V0H24" id="P"/><path fill="#333" d="M85-194c31 0 48 13 60 33l-1-100h32l1 261h-30c-2-10 0-23-3-31C134-8 116 4 85 4 32 4 16-35 15-94c0-66 23-100 70-100zm9 24c-40 0-46 34-46 75 0 40 6 74 45 74 42 0 51-32 51-76 0-42-9-74-50-73" id="Q"/><g id="b"><use transform="matrix(0.05,0,0,0.05,0,0)" xlink:href="#P"/><use transform="matrix(0.05,0,0,0.05,3.95,0)" xlink:href="#Q"/></g><path fill="#333" d="M33 0v-248h34V0H33" id="R"/><path fill="#333" d="M190 0L58-211 59 0H30v-248h39L202-35l-2-213h31V0h-41" id="S"/><path fill="#333" d="M127-220V0H93v-220H8v-28h204v28h-85" id="T"/><g id="c"><use transform="matrix(0.05,0,0,0.05,0,0)" xlink:href="#R"/><use transform="matrix(0.05,0,0,0.05,5,0)" xlink:href="#S"/><use transform="matrix(0.05,0,0,0.05,17.950000000000003,0)" xlink:href="#T"/></g><path fill="#333" d="M16-82v-28h88v28H16" id="U"/><use transform="matrix(0.05,0,0,0.05,0,0)" xlink:href="#U" id="d"/><path fill="#333" d="M30-248c87 1 191-15 191 75 0 78-77 80-158 76V0H30v-248zm33 125c57 0 124 11 124-50 0-59-68-47-124-48v98" id="V"/><path fill="#333" d="M194 0L95-120 63-95V0H30v-248h33v124l119-124h40L117-140 236 0h-42" id="W"/><g id="e"><use transform="matrix(0.05,0,0,0.05,0,0)" xlink:href="#V"/><use transform="matrix(0.05,0,0,0.05,12,0)" xlink:href="#W"/></g><path fill="#333" d="M59-47c-2 24 18 29 38 22v24C64 9 27 4 27-40v-127H5v-23h24l9-43h21v43h35v23H59v120" id="X"/><path fill="#333" d="M24 0v-261h32V0H24" id="Y"/><path fill="#333" d="M100-194c63 0 86 42 84 106H49c0 40 14 67 53 68 26 1 43-12 49-29l28 8c-11 28-37 45-77 45C44 4 14-33 15-96c1-61 26-98 85-98zm52 81c6-60-76-77-97-28-3 7-6 17-6 28h103" id="Z"/><g id="f"><use transform="matrix(0.05,0,0,0.05,0,0)" xlink:href="#X"/><use transform="matrix(0.05,0,0,0.05,5,0)" xlink:href="#P"/><use transform="matrix(0.05,0,0,0.05,8.95,0)" xlink:href="#X"/><use transform="matrix(0.05,0,0,0.05,13.949999999999998,0)" xlink:href="#Y"/><use transform="matrix(0.05,0,0,0.05,17.9,0)" xlink:href="#Z"/></g><path fill="#333" d="M137 0h-34L2-248h35l83 218 83-218h36" id="aa"/><path fill="#333" d="M205 0l-28-72H64L36 0H1l101-248h38L239 0h-34zm-38-99l-47-123c-12 45-31 82-46 123h93" id="ab"/><path fill="#333" d="M233-177c-1 41-23 64-60 70L243 0h-38l-65-103H63V0H30v-248c88 3 205-21 203 71zM63-129c60-2 137 13 137-47 0-61-80-42-137-45v92" id="ac"/><path fill="#333" d="M212-179c-10-28-35-45-73-45-59 0-87 40-87 99 0 60 29 101 89 101 43 0 62-24 78-52l27 14C228-24 195 4 139 4 59 4 22-46 18-125c-6-104 99-153 187-111 19 9 31 26 39 46" id="ad"/><path fill="#333" d="M197 0v-115H63V0H30v-248h33v105h134v-105h34V0h-34" id="ae"/><g id="g"><use transform="matrix(0.05,0,0,0.05,0,0)" xlink:href="#aa"/><use transform="matrix(0.05,0,0,0.05,10.65,0)" xlink:href="#ab"/><use transform="matrix(0.05,0,0,0.05,22.65,0)" xlink:href="#ac"/><use transform="matrix(0.05,0,0,0.05,35.6,0)" xlink:href="#ad"/><use transform="matrix(0.05,0,0,0.05,48.550000000000004,0)" xlink:href="#ae"/><use transform="matrix(0.05,0,0,0.05,61.5,0)" xlink:href="#ab"/><use transform="matrix(0.05,0,0,0.05,73.5,0)" xlink:href="#ac"/></g><path fill="#333" d="M87 75C49 33 22-17 22-94c0-76 28-126 65-167h31c-38 41-64 92-64 168S80 34 118 75H87" id="af"/><path fill="#333" d="M27 0v-27h64v-190l-56 39v-29l58-41h29v221h61V0H27" id="ag"/><path fill="#333" d="M101-251c82-7 93 87 43 132L82-64C71-53 59-42 53-27h129V0H18c2-99 128-94 128-182 0-28-16-43-45-43s-46 15-49 41l-32-3c6-41 34-60 81-64" id="ah"/><path fill="#333" d="M134-131c28 9 52 24 51 62-1 50-34 73-85 73S17-19 16-69c0-36 21-54 49-61-75-25-45-126 34-121 46 3 78 18 79 63 0 33-17 51-44 57zm-34-11c31 1 46-15 46-44 0-28-17-43-47-42-29 0-46 13-45 42 1 28 16 44 46 44zm1 122c35 0 51-18 51-52 0-30-18-46-53-46-33 0-51 17-51 47 0 34 19 51 53 51" id="ai"/><path fill="#333" d="M33-261c38 41 65 92 65 168S71 34 33 75H2C39 34 66-17 66-93S39-220 2-261h31" id="aj"/><g id="h"><use transform="matrix(0.05,0,0,0.05,0,0)" xlink:href="#af"/><use transform="matrix(0.05,0,0,0.05,5.95,0)" xlink:href="#ag"/><use transform="matrix(0.05,0,0,0.05,15.949999999999998,0)" xlink:href="#ah"/><use transform="matrix(0.05,0,0,0.05,25.950000000000003,0)" xlink:href="#ai"/><use transform="matrix(0.05,0,0,0.05,35.95,0)" xlink:href="#aj"/></g><path fill="#333" d="M135-143c-3-34-86-38-87 0 15 53 115 12 119 90S17 21 10-45l28-5c4 36 97 45 98 0-10-56-113-15-118-90-4-57 82-63 122-42 12 7 21 19 24 35" id="ak"/><path fill="#333" d="M96-169c-40 0-48 33-48 73s9 75 48 75c24 0 41-14 43-38l32 2c-6 37-31 61-74 61-59 0-76-41-82-99-10-93 101-131 147-64 4 7 5 14 7 22l-32 3c-4-21-16-35-41-35" id="al"/><path fill="#333" d="M114-163C36-179 61-72 57 0H25l-1-190h30c1 12-1 29 2 39 6-27 23-49 58-41v29" id="am"/><path fill="#333" d="M115-194c55 1 70 41 70 98S169 2 115 4C84 4 66-9 55-30l1 105H24l-1-265h31l2 30c10-21 28-34 59-34zm-8 174c40 0 45-34 45-75s-6-73-45-74c-42 0-51 32-51 76 0 43 10 73 51 73" id="an"/><path fill="#333" d="M100-194c62-1 85 37 85 99 1 63-27 99-86 99S16-35 15-95c0-66 28-99 85-99zM99-20c44 1 53-31 53-75 0-43-8-75-51-75s-53 32-53 75 10 74 51 75" id="ao"/><path fill="#333" d="M117-194c89-4 53 116 60 194h-32v-121c0-31-8-49-39-48C34-167 62-67 57 0H25l-1-190h30c1 10-1 24 2 32 11-22 29-35 61-36" id="ap"/><g id="i"><use transform="matrix(0.05,0,0,0.05,0,0)" xlink:href="#Q"/><use transform="matrix(0.05,0,0,0.05,10,0)" xlink:href="#Z"/><use transform="matrix(0.05,0,0,0.05,20,0)" xlink:href="#ak"/><use transform="matrix(0.05,0,0,0.05,29,0)" xlink:href="#al"/><use transform="matrix(0.05,0,0,0.05,38,0)" xlink:href="#am"/><use transform="matrix(0.05,0,0,0.05,43.95,0)" xlink:href="#P"/><use transform="matrix(0.05,0,0,0.05,47.900000000000006,0)" xlink:href="#an"/><use transform="matrix(0.05,0,0,0.05,57.900000000000006,0)" xlink:href="#X"/><use transform="matrix(0.05,0,0,0.05,62.900000000000006,0)" xlink:href="#P"/><use transform="matrix(0.05,0,0,0.05,66.85000000000001,0)" xlink:href="#ao"/><use transform="matrix(0.05,0,0,0.05,76.85000000000001,0)" xlink:href="#ap"/></g><path fill="#333" d="M54-142c48-35 137-8 131 61C196 18 31 33 14-55l32-4c7 23 22 37 52 37 35-1 51-22 54-58 4-55-73-65-99-34H22l8-134h141v27H59" id="aq"/><g id="j"><use transform="matrix(0.05,0,0,0.05,0,0)" xlink:href="#af"/><use transform="matrix(0.05,0,0,0.05,5.95,0)" xlink:href="#aq"/><use transform="matrix(0.05,0,0,0.05,15.949999999999998,0)" xlink:href="#ag"/><use transform="matrix(0.05,0,0,0.05,25.950000000000003,0)" xlink:href="#ah"/><use transform="matrix(0.05,0,0,0.05,35.95,0)" xlink:href="#aj"/></g><path fill="#333" d="M141-36C126-15 110 5 73 4 37 3 15-17 15-53c-1-64 63-63 125-63 3-35-9-54-41-54-24 1-41 7-42 31l-33-3c5-37 33-52 76-52 45 0 72 20 72 64v82c-1 20 7 32 28 27v20c-31 9-61-2-59-35zM48-53c0 20 12 33 32 33 41-3 63-29 60-74-43 2-92-5-92 41" id="ar"/><path fill="#333" d="M177-190C167-65 218 103 67 71c-23-6-38-20-44-43l32-5c15 47 100 32 89-28v-30C133-14 115 1 83 1 29 1 15-40 15-95c0-56 16-97 71-98 29-1 48 16 59 35 1-10 0-23 2-32h30zM94-22c36 0 50-32 50-73 0-42-14-75-50-75-39 0-46 34-46 75s6 73 46 73" id="as"/><g id="k"><use transform="matrix(0.05,0,0,0.05,0,0)" xlink:href="#X"/><use transform="matrix(0.05,0,0,0.05,5,0)" xlink:href="#ar"/><use transform="matrix(0.05,0,0,0.05,15,0)" xlink:href="#as"/><use transform="matrix(0.05,0,0,0.05,25,0)" xlink:href="#Y"/><use transform="matrix(0.05,0,0,0.05,28.950000000000003,0)" xlink:href="#P"/><use transform="matrix(0.05,0,0,0.05,32.9,0)" xlink:href="#ap"/><use transform="matrix(0.05,0,0,0.05,42.9,0)" xlink:href="#Z"/></g><path fill="#333" d="M110-160c48 1 74 30 74 79 0 53-28 85-80 85-65 0-83-55-86-122-5-90 50-162 133-122 14 7 22 21 27 39l-31 6c-5-40-67-38-82-6-9 19-15 44-15 74 11-20 30-34 60-33zm-7 138c34 0 49-23 49-58s-16-56-50-56c-29 0-50 16-49 49 1 36 15 65 50 65" id="at"/><g id="l"><use transform="matrix(0.05,0,0,0.05,0,0)" xlink:href="#af"/><use transform="matrix(0.05,0,0,0.05,5.95,0)" xlink:href="#ah"/><use transform="matrix(0.05,0,0,0.05,15.949999999999998,0)" xlink:href="#aq"/><use transform="matrix(0.05,0,0,0.05,25.950000000000003,0)" xlink:href="#at"/><use transform="matrix(0.05,0,0,0.05,35.95,0)" xlink:href="#aj"/></g><path fill="#333" d="M-5 72V49h209v23H-5" id="au"/><g id="m"><use transform="matrix(0.05,0,0,0.05,0,0)" xlink:href="#am"/><use transform="matrix(0.05,0,0,0.05,5.95,0)" xlink:href="#Z"/><use transform="matrix(0.05,0,0,0.05,15.949999999999998,0)" xlink:href="#Y"/><use transform="matrix(0.05,0,0,0.05,19.9,0)" xlink:href="#Z"/><use transform="matrix(0.05,0,0,0.05,29.899999999999995,0)" xlink:href="#ar"/><use transform="matrix(0.05,0,0,0.05,39.9,0)" xlink:href="#ak"/><use transform="matrix(0.05,0,0,0.05,48.9,0)" xlink:href="#Z"/><use transform="matrix(0.05,0,0,0.05,58.900000000000006,0)" xlink:href="#au"/><use transform="matrix(0.05,0,0,0.05,68.9,0)" xlink:href="#Q"/><use transform="matrix(0.05,0,0,0.05,78.9,0)" xlink:href="#ar"/><use transform="matrix(0.05,0,0,0.05,88.9,0)" xlink:href="#X"/><use transform="matrix(0.05,0,0,0.05,93.9,0)" xlink:href="#Z"/></g><path fill="#333" d="M30-248c118-7 216 8 213 122C240-48 200 0 122 0H30v-248zM63-27c89 8 146-16 146-99s-60-101-146-95v194" id="av"/><path fill="#333" d="M30 0v-248h187v28H63v79h144v27H63v87h162V0H30" id="aw"/><g id="n"><use transform="matrix(0.05,0,0,0.05,0,0)" xlink:href="#av"/><use transform="matrix(0.05,0,0,0.05,12.950000000000001,0)" xlink:href="#ab"/><use transform="matrix(0.05,0,0,0.05,23.6,0)" xlink:href="#T"/><use transform="matrix(0.05,0,0,0.05,34.550000000000004,0)" xlink:href="#aw"/></g><path fill="#333" d="M84 4C-5 8 30-112 23-190h32v120c0 31 7 50 39 49 72-2 45-101 50-169h31l1 190h-30c-1-10 1-25-2-33-11 22-28 36-60 37" id="ax"/><path fill="#333" d="M210-169c-67 3-38 105-44 169h-31v-121c0-29-5-50-35-48C34-165 62-65 56 0H25l-1-190h30c1 10-1 24 2 32 10-44 99-50 107 0 11-21 27-35 58-36 85-2 47 119 55 194h-31v-121c0-29-5-49-35-48" id="ay"/><g id="o"><use transform="matrix(0.05,0,0,0.05,0,0)" xlink:href="#am"/><use transform="matrix(0.05,0,0,0.05,5.95,0)" xlink:href="#ax"/><use transform="matrix(0.05,0,0,0.05,15.949999999999998,0)" xlink:href="#ap"/><use transform="matrix(0.05,0,0,0.05,25.950000000000003,0)" xlink:href="#X"/><use transform="matrix(0.05,0,0,0.05,30.950000000000003,0)" xlink:href="#P"/><use transform="matrix(0.05,0,0,0.05,34.9,0)" xlink:href="#ay"/><use transform="matrix(0.05,0,0,0.05,49.85,0)" xlink:href="#Z"/></g><path fill="#333" d="M185-189c-5-48-123-54-124 2 14 75 158 14 163 119 3 78-121 87-175 55-17-10-28-26-33-46l33-7c5 56 141 63 141-1 0-78-155-14-162-118-5-82 145-84 179-34 5 7 8 16 11 25" id="az"/><path fill="#333" d="M240 0l2-218c-23 76-54 145-80 218h-23L58-218 59 0H30v-248h44l77 211c21-75 51-140 76-211h43V0h-30" id="aA"/><path fill="#333" d="M30 0v-248h33v221h125V0H30" id="aB"/><g id="p"><use transform="matrix(0.05,0,0,0.05,0,0)" xlink:href="#az"/><use transform="matrix(0.05,0,0,0.05,12,0)" xlink:href="#aA"/><use transform="matrix(0.05,0,0,0.05,26.950000000000003,0)" xlink:href="#ab"/><use transform="matrix(0.05,0,0,0.05,38.95,0)" xlink:href="#aB"/><use transform="matrix(0.05,0,0,0.05,48.95,0)" xlink:href="#aB"/><use transform="matrix(0.05,0,0,0.05,58.95,0)" xlink:href="#R"/><use transform="matrix(0.05,0,0,0.05,63.95,0)" xlink:href="#S"/><use transform="matrix(0.05,0,0,0.05,76.9,0)" xlink:href="#T"/></g><g id="q"><use transform="matrix(0.05,0,0,0.05,0,0)" xlink:href="#P"/><use transform="matrix(0.05,0,0,0.05,3.95,0)" xlink:href="#ay"/><use transform="matrix(0.05,0,0,0.05,18.900000000000002,0)" xlink:href="#ar"/><use transform="matrix(0.05,0,0,0.05,28.900000000000002,0)" xlink:href="#as"/><use transform="matrix(0.05,0,0,0.05,38.900000000000006,0)" xlink:href="#Z"/></g><path fill="#333" d="M115-194c53 0 69 39 70 98 0 66-23 100-70 100C84 3 66-7 56-30L54 0H23l1-261h32v101c10-23 28-34 59-34zm-8 174c40 0 45-34 45-75 0-40-5-75-45-74-42 0-51 32-51 76 0 43 10 73 51 73" id="aC"/><path fill="#333" d="M101-234c-31-9-42 10-38 44h38v23H63V0H32v-167H5v-23h27c-7-52 17-82 69-68v24" id="aD"/><g id="r"><use transform="matrix(0.05,0,0,0.05,0,0)" xlink:href="#P"/><use transform="matrix(0.05,0,0,0.05,3.95,0)" xlink:href="#ay"/><use transform="matrix(0.05,0,0,0.05,18.900000000000002,0)" xlink:href="#Q"/><use transform="matrix(0.05,0,0,0.05,28.900000000000002,0)" xlink:href="#aC"/><use transform="matrix(0.05,0,0,0.05,38.900000000000006,0)" xlink:href="#au"/><use transform="matrix(0.05,0,0,0.05,48.900000000000006,0)" xlink:href="#am"/><use transform="matrix(0.05,0,0,0.05,54.85,0)" xlink:href="#Z"/><use transform="matrix(0.05,0,0,0.05,64.85000000000001,0)" xlink:href="#aD"/><use transform="matrix(0.05,0,0,0.05,69.85000000000001,0)" xlink:href="#Z"/><use transform="matrix(0.05,0,0,0.05,79.85000000000001,0)" xlink:href="#am"/><use transform="matrix(0.05,0,0,0.05,85.80000000000001,0)" xlink:href="#Z"/><use transform="matrix(0.05,0,0,0.05,95.80000000000001,0)" xlink:href="#ap"/><use transform="matrix(0.05,0,0,0.05,105.80000000000001,0)" xlink:href="#al"/><use transform="matrix(0.05,0,0,0.05,114.80000000000001,0)" xlink:href="#Z"/></g><path fill="#333" d="M155-56V0h-30v-56H8v-25l114-167h33v167h35v25h-35zm-30-156c-27 46-58 90-88 131h88v-131" id="aE"/><g id="s"><use transform="matrix(0.05,0,0,0.05,0,0)" xlink:href="#af"/><use transform="matrix(0.05,0,0,0.05,5.95,0)" xlink:href="#ah"/><use transform="matrix(0.05,0,0,0.05,15.949999999999998,0)" xlink:href="#aE"/><use transform="matrix(0.05,0,0,0.05,25.950000000000003,0)" xlink:href="#aj"/></g><g id="t"><use transform="matrix(0.05,0,0,0.05,0,0)" xlink:href="#X"/><use transform="matrix(0.05,0,0,0.05,5,0)" xlink:href="#ay"/><use transform="matrix(0.05,0,0,0.05,19.950000000000003,0)" xlink:href="#Q"/><use transform="matrix(0.05,0,0,0.05,29.950000000000003,0)" xlink:href="#aC"/><use transform="matrix(0.05,0,0,0.05,39.95,0)" xlink:href="#au"/><use transform="matrix(0.05,0,0,0.05,49.95,0)" xlink:href="#am"/><use transform="matrix(0.05,0,0,0.05,55.900000000000006,0)" xlink:href="#Z"/><use transform="matrix(0.05,0,0,0.05,65.9,0)" xlink:href="#aD"/><use transform="matrix(0.05,0,0,0.05,70.9,0)" xlink:href="#Z"/><use transform="matrix(0.05,0,0,0.05,80.9,0)" xlink:href="#am"/><use transform="matrix(0.05,0,0,0.05,86.85000000000001,0)" xlink:href="#Z"/><use transform="matrix(0.05,0,0,0.05,96.85000000000001,0)" xlink:href="#ap"/><use transform="matrix(0.05,0,0,0.05,106.85000000000001,0)" xlink:href="#al"/><use transform="matrix(0.05,0,0,0.05,115.85000000000001,0)" xlink:href="#Z"/></g><g id="u"><use transform="matrix(0.05,0,0,0.05,0,0)" xlink:href="#R"/><use transform="matrix(0.05,0,0,0.05,5,0)" xlink:href="#S"/><use transform="matrix(0.05,0,0,0.05,17.950000000000003,0)" xlink:href="#T"/></g><path fill="#333" d="M195-6C206 82 75 100 31 46c-4-6-6-13-8-21l49-6c3 16 16 24 34 25 40 0 42-37 40-79-11 22-30 35-61 35-53 0-70-43-70-97 0-56 18-96 73-97 30 0 46 14 59 34l2-30h47zm-90-29c32 0 41-27 41-63 0-35-9-62-40-62-32 0-39 29-40 63 0 36 9 62 39 62" id="aF"/><path fill="#333" d="M135-194c87-1 58 113 63 194h-50c-7-57 23-157-34-157-59 0-34 97-39 157H25l-1-190h47c2 12-1 28 3 38 12-26 28-41 61-42" id="aG"/><path fill="#333" d="M135-150c-39-12-60 13-60 57V0H25l-1-190h47c2 13-1 29 3 40 6-28 27-53 61-41v41" id="aH"/><g id="v"><use transform="matrix(0.05,0,0,0.05,0,0)" xlink:href="#aF"/><use transform="matrix(0.05,0,0,0.05,10.950000000000001,0)" xlink:href="#N"/><use transform="matrix(0.05,0,0,0.05,20.950000000000003,0)" xlink:href="#aG"/><use transform="matrix(0.05,0,0,0.05,31.900000000000006,0)" xlink:href="#aH"/><use transform="matrix(0.05,0,0,0.05,38.900000000000006,0)" xlink:href="#N"/><use transform="matrix(0.05,0,0,0.05,48.900000000000006,0)" xlink:href="#O"/></g><g id="w"><use transform="matrix(0.05,0,0,0.05,0,0)" xlink:href="#ap"/><use transform="matrix(0.05,0,0,0.05,10,0)" xlink:href="#ar"/><use transform="matrix(0.05,0,0,0.05,20,0)" xlink:href="#ay"/><use transform="matrix(0.05,0,0,0.05,34.95,0)" xlink:href="#Z"/></g><g id="x"><use transform="matrix(0.05,0,0,0.05,0,0)" xlink:href="#af"/><use transform="matrix(0.05,0,0,0.05,5.95,0)" xlink:href="#at"/><use transform="matrix(0.05,0,0,0.05,15.949999999999998,0)" xlink:href="#aE"/><use transform="matrix(0.05,0,0,0.05,25.950000000000003,0)" xlink:href="#aj"/></g><g id="y"><use transform="matrix(0.05,0,0,0.05,0,0)" xlink:href="#am"/><use transform="matrix(0.05,0,0,0.05,5.95,0)" xlink:href="#Z"/><use transform="matrix(0.05,0,0,0.05,15.949999999999998,0)" xlink:href="#aD"/><use transform="matrix(0.05,0,0,0.05,20.95,0)" xlink:href="#Z"/><use transform="matrix(0.05,0,0,0.05,30.950000000000003,0)" xlink:href="#am"/><use transform="matrix(0.05,0,0,0.05,36.9,0)" xlink:href="#Z"/><use transform="matrix(0.05,0,0,0.05,46.9,0)" xlink:href="#ap"/><use transform="matrix(0.05,0,0,0.05,56.900000000000006,0)" xlink:href="#al"/><use transform="matrix(0.05,0,0,0.05,65.9,0)" xlink:href="#Z"/></g><path fill="#333" d="M-4 44V30h207v14H-4" id="aI"/><g id="z"><use transform="matrix(0.05,0,0,0.05,0,0)" xlink:href="#J"/><use transform="matrix(0.05,0,0,0.05,16,0)" xlink:href="#K"/><use transform="matrix(0.05,0,0,0.05,26.950000000000003,0)" xlink:href="#L"/><use transform="matrix(0.05,0,0,0.05,36.95,0)" xlink:href="#M"/><use transform="matrix(0.05,0,0,0.05,41.95,0)" xlink:href="#N"/><use transform="matrix(0.05,0,0,0.05,51.95,0)" xlink:href="#O"/><use transform="matrix(0.05,0,0,0.05,61.95,0)" xlink:href="#aI"/><use transform="matrix(0.05,0,0,0.05,71.95,0)" xlink:href="#aF"/><use transform="matrix(0.05,0,0,0.05,82.9,0)" xlink:href="#N"/><use transform="matrix(0.05,0,0,0.05,92.9,0)" xlink:href="#aG"/><use transform="matrix(0.05,0,0,0.05,103.85000000000001,0)" xlink:href="#aH"/><use transform="matrix(0.05,0,0,0.05,110.85000000000001,0)" xlink:href="#N"/><use transform="matrix(0.05,0,0,0.05,120.85000000000001,0)" xlink:href="#O"/></g><path fill="#333" d="M108 0H70L1-190h34L89-25l56-165h34" id="aJ"/><g id="A"><use transform="matrix(0.05,0,0,0.05,0,0)" xlink:href="#ay"/><use transform="matrix(0.05,0,0,0.05,14.950000000000001,0)" xlink:href="#ao"/><use transform="matrix(0.05,0,0,0.05,24.950000000000003,0)" xlink:href="#aJ"/><use transform="matrix(0.05,0,0,0.05,33.95,0)" xlink:href="#P"/><use transform="matrix(0.05,0,0,0.05,37.900000000000006,0)" xlink:href="#Z"/></g><g id="B"><use transform="matrix(0.05,0,0,0.05,0,0)" xlink:href="#V"/><use transform="matrix(0.05,0,0,0.05,12,0)" xlink:href="#W"/></g><path fill="#333" d="M0 4l72-265h28L28 4H0" id="aK"/><use transform="matrix(0.05,0,0,0.05,0,0)" xlink:href="#aK" id="C"/><path fill="#333" d="M63-220v92h138v28H63V0H30v-248h175v28H63" id="aL"/><g id="D"><use transform="matrix(0.05,0,0,0.05,0,0)" xlink:href="#aL"/><use transform="matrix(0.05,0,0,0.05,10.950000000000001,0)" xlink:href="#W"/></g><g id="E"><use transform="matrix(0.05,0,0,0.05,0,0)" xlink:href="#as"/><use transform="matrix(0.05,0,0,0.05,10,0)" xlink:href="#Z"/><use transform="matrix(0.05,0,0,0.05,20,0)" xlink:href="#ap"/><use transform="matrix(0.05,0,0,0.05,30,0)" xlink:href="#am"/><use transform="matrix(0.05,0,0,0.05,35.95,0)" xlink:href="#Z"/></g><path fill="#333" d="M135-194c53 0 70 44 70 98 0 56-19 98-73 100-31 1-45-17-59-34 3 33 2 69 2 105H25l-1-265h48c2 10 0 23 3 31 11-24 29-35 60-35zM114-30c33 0 39-31 40-66 0-38-9-64-40-64-56 0-55 130 0 130" id="aM"/><path fill="#333" d="M88-194c31-1 46 15 58 34l-1-101h50l1 261h-48c-2-10 0-23-3-31C134-8 116 4 84 4 32 4 16-41 15-95c0-56 19-97 73-99zm17 164c33 0 40-30 41-66 1-37-9-64-41-64s-38 30-39 65c0 43 13 65 39 65" id="aN"/><path fill="#333" d="M85 4C-2 5 27-109 22-190h50c7 57-23 150 33 157 60-5 35-97 40-157h50l1 190h-47c-2-12 1-28-3-38-12 25-28 42-61 42" id="aO"/><path fill="#333" d="M190-63c-7 42-38 67-86 67-59 0-84-38-90-98-12-110 154-137 174-36l-49 2c-2-19-15-32-35-32-30 0-35 28-38 64-6 74 65 87 74 30" id="aP"/><path fill="#333" d="M115-3C79 11 28 4 28-45v-112H4v-33h27l15-45h31v45h36v33H77v99c-1 23 16 31 38 25v30" id="aQ"/><path fill="#333" d="M133-34C117-15 103 5 69 4 32 3 11-16 11-54c-1-60 55-63 116-61 1-26-3-47-28-47-18 1-26 9-28 27l-52-2c7-38 36-58 82-57s74 22 75 68l1 82c-1 14 12 18 25 15v27c-30 8-71 5-69-32zm-48 3c29 0 43-24 42-57-32 0-66-3-65 30 0 17 8 27 23 27" id="aR"/><g id="F"><use transform="matrix(0.05,0,0,0.05,0,0)" xlink:href="#J"/><use transform="matrix(0.05,0,0,0.05,16,0)" xlink:href="#K"/><use transform="matrix(0.05,0,0,0.05,26.950000000000003,0)" xlink:href="#L"/><use transform="matrix(0.05,0,0,0.05,36.95,0)" xlink:href="#M"/><use transform="matrix(0.05,0,0,0.05,41.95,0)" xlink:href="#N"/><use transform="matrix(0.05,0,0,0.05,51.95,0)" xlink:href="#O"/><use transform="matrix(0.05,0,0,0.05,61.95,0)" xlink:href="#aI"/><use transform="matrix(0.05,0,0,0.05,71.95,0)" xlink:href="#aM"/><use transform="matrix(0.05,0,0,0.05,82.9,0)" xlink:href="#aH"/><use transform="matrix(0.05,0,0,0.05,89.9,0)" xlink:href="#K"/><use transform="matrix(0.05,0,0,0.05,100.85000000000001,0)" xlink:href="#aN"/><use transform="matrix(0.05,0,0,0.05,111.80000000000001,0)" xlink:href="#aO"/><use transform="matrix(0.05,0,0,0.05,122.75,0)" xlink:href="#aP"/><use transform="matrix(0.05,0,0,0.05,132.75,0)" xlink:href="#aQ"/><use transform="matrix(0.05,0,0,0.05,138.7,0)" xlink:href="#M"/><use transform="matrix(0.05,0,0,0.05,143.7,0)" xlink:href="#K"/><use transform="matrix(0.05,0,0,0.05,154.64999999999998,0)" xlink:href="#aG"/><use transform="matrix(0.05,0,0,0.05,165.59999999999997,0)" xlink:href="#aI"/><use transform="matrix(0.05,0,0,0.05,175.59999999999997,0)" xlink:href="#aP"/><use transform="matrix(0.05,0,0,0.05,185.59999999999997,0)" xlink:href="#K"/><use transform="matrix(0.05,0,0,0.05,196.54999999999995,0)" xlink:href="#J"/><use transform="matrix(0.05,0,0,0.05,212.54999999999995,0)" xlink:href="#aM"/><use transform="matrix(0.05,0,0,0.05,223.49999999999991,0)" xlink:href="#aR"/><use transform="matrix(0.05,0,0,0.05,233.49999999999991,0)" xlink:href="#aG"/><use transform="matrix(0.05,0,0,0.05,244.44999999999993,0)" xlink:href="#M"/><use transform="matrix(0.05,0,0,0.05,249.44999999999993,0)" xlink:href="#N"/><use transform="matrix(0.05,0,0,0.05,259.44999999999993,0)" xlink:href="#O"/></g><path fill="#333" d="M33 0v-38h34V0H33" id="aS"/><path fill="#333" d="M179-190L93 31C79 59 56 82 12 73V49c39 6 53-20 64-50L1-190h34L92-34l54-156h33" id="aT"/><g id="G"><use transform="matrix(0.05,0,0,0.05,0,0)" xlink:href="#an"/><use transform="matrix(0.05,0,0,0.05,10,0)" xlink:href="#am"/><use transform="matrix(0.05,0,0,0.05,15.949999999999998,0)" xlink:href="#ao"/><use transform="matrix(0.05,0,0,0.05,25.950000000000003,0)" xlink:href="#Q"/><use transform="matrix(0.05,0,0,0.05,35.95,0)" xlink:href="#aS"/><use transform="matrix(0.05,0,0,0.05,40.95,0)" xlink:href="#aS"/><use transform="matrix(0.05,0,0,0.05,45.95,0)" xlink:href="#aS"/><use transform="matrix(0.05,0,0,0.05,50.95,0)" xlink:href="#an"/><use transform="matrix(0.05,0,0,0.05,60.95,0)" xlink:href="#ar"/><use transform="matrix(0.05,0,0,0.05,70.95,0)" xlink:href="#ap"/><use transform="matrix(0.05,0,0,0.05,80.95,0)" xlink:href="#aT"/></g><g id="H"><use transform="matrix(0.05,0,0,0.05,0,0)" xlink:href="#aM"/><use transform="matrix(0.05,0,0,0.05,10.950000000000001,0)" xlink:href="#aH"/><use transform="matrix(0.05,0,0,0.05,17.950000000000003,0)" xlink:href="#K"/><use transform="matrix(0.05,0,0,0.05,28.900000000000006,0)" xlink:href="#aN"/><use transform="matrix(0.05,0,0,0.05,39.85000000000001,0)" xlink:href="#aO"/><use transform="matrix(0.05,0,0,0.05,50.80000000000001,0)" xlink:href="#aP"/><use transform="matrix(0.05,0,0,0.05,60.80000000000001,0)" xlink:href="#aQ"/><use transform="matrix(0.05,0,0,0.05,66.75000000000001,0)" xlink:href="#M"/><use transform="matrix(0.05,0,0,0.05,71.75000000000001,0)" xlink:href="#K"/><use transform="matrix(0.05,0,0,0.05,82.70000000000002,0)" xlink:href="#aG"/><use transform="matrix(0.05,0,0,0.05,93.65000000000002,0)" xlink:href="#aI"/><use transform="matrix(0.05,0,0,0.05,103.65000000000003,0)" xlink:href="#aP"/><use transform="matrix(0.05,0,0,0.05,113.65000000000003,0)" xlink:href="#K"/><use transform="matrix(0.05,0,0,0.05,124.60000000000002,0)" xlink:href="#J"/><use transform="matrix(0.05,0,0,0.05,140.60000000000002,0)" xlink:href="#aM"/><use transform="matrix(0.05,0,0,0.05,151.55,0)" xlink:href="#aR"/><use transform="matrix(0.05,0,0,0.05,161.55,0)" xlink:href="#aG"/><use transform="matrix(0.05,0,0,0.05,172.5,0)" xlink:href="#M"/><use transform="matrix(0.05,0,0,0.05,177.5,0)" xlink:href="#N"/><use transform="matrix(0.05,0,0,0.05,187.5,0)" xlink:href="#O"/></g><g id="I"><use transform="matrix(0.05,0,0,0.05,0,0)" xlink:href="#ap"/><use transform="matrix(0.05,0,0,0.05,10,0)" xlink:href="#ar"/><use transform="matrix(0.05,0,0,0.05,20,0)" xlink:href="#ay"/><use transform="matrix(0.05,0,0,0.05,34.95,0)" xlink:href="#Z"/></g></defs></g></svg>